<?xml version="1.0" encoding="utf-8"?>
<!-- Generator: Adobe Illustrator 20.1.0, SVG Export Plug-In . SVG Version: 6.00 Build 0)  -->
<svg version="1.1" id="Calque_1" xmlns="http://www.w3.org/2000/svg" xmlns:xlink="http://www.w3.org/1999/xlink" x="0px" y="0px"
	 viewBox="0 0 495 228" style="enable-background:new 0 0 495 228;" xml:space="preserve">
<style type="text/css">
	.st0{stroke:#000000;stroke-width:0.75;stroke-miterlimit:10;}
</style>
<rect x="18.3" y="91" transform="matrix(-1.836970e-16 1 -1 -1.836970e-16 232.1874 72.6851)" class="st0" width="122.8" height="122.8"/>
<g>
	<path d="M71.9,46c0,21.7-13.2,33.2-29.2,33.2c-16.6,0-28.3-12.9-28.3-31.9c0-20,12.4-33.1,29.2-33.1C60.8,14.1,71.9,27.3,71.9,46z
		 M23,47c0,13.4,7.3,25.5,20.1,25.5c12.9,0,20.2-11.9,20.2-26.1c0-12.5-6.5-25.6-20.1-25.6C29.8,20.7,23,33.2,23,47z"/>
	<path d="M90.6,15.1v37.3c0,14.1,6.3,20.1,14.7,20.1c9.3,0,15.3-6.2,15.3-20.1V15.1h8.2v36.7c0,19.3-10.2,27.3-23.8,27.3
		c-12.9,0-22.6-7.4-22.6-26.9V15.1H90.6z"/>
	<path d="M154.8,22h-19.1v-6.9h46.6V22H163v56h-8.2V22z"/>
	<path d="M262.9,46c0,21.7-13.2,33.2-29.2,33.2c-16.6,0-28.3-12.9-28.3-31.9c0-20,12.4-33.1,29.2-33.1
		C251.8,14.1,262.9,27.3,262.9,46z M214,47c0,13.4,7.3,25.5,20.1,25.5c12.9,0,20.2-11.9,20.2-26.1c0-12.5-6.5-25.6-20.1-25.6
		C220.7,20.7,214,33.2,214,47z"/>
	<path d="M273.4,15.1h33.9V22h-25.8v20.9h23.8v6.7h-23.8v28.5h-8.1V15.1z"/>
	<path d="M346.8,22h-19.1v-6.9h46.6V22H355v56h-8.2V22z"/>
	<path d="M389.4,15.1v26.3h30.4V15.1h8.2v62.9h-8.2V48.6h-30.4v29.5h-8.1V15.1H389.4z"/>
	<path d="M474.8,48.6h-24.5v22.7h27.3v6.8h-35.4V15.1h34V22h-25.9v19.9h24.5V48.6z"/>
</g>
<g>
	<path d="M159.9,88.6c7.2-1.5,18.7-2.7,30.3-2.7c16.6,0,27.2,2.9,35.3,9.3c6.7,5,10.7,12.6,10.7,22.7c0,12.4-8.2,23.2-21.7,28.2v0.4
		c12.2,3,26.5,13.1,26.5,32.2c0,11.1-4.4,19.4-10.9,25.7c-9,8.2-23.4,12-44.4,12c-11.4,0-20.2-0.8-25.7-1.5V88.6z M176.4,141.2h15.1
		c17.5,0,27.8-9.1,27.8-21.5c0-15.1-11.4-21-28.2-21c-7.6,0-12,0.6-14.7,1.1V141.2z M176.4,202.8c3.2,0.6,8,0.8,13.9,0.8
		c17.1,0,33-6.3,33-25c0-17.5-15.1-24.8-33.2-24.8h-13.7V202.8z"/>
	<path d="M372.9,149.8c0,44.2-26.9,67.6-59.6,67.6c-33.9,0-57.7-26.3-57.7-65.2c0-40.8,25.3-67.5,59.6-67.5
		C350.2,84.8,372.9,111.7,372.9,149.8z M273.2,151.9c0,27.4,14.9,52,41,52c26.3,0,41.2-24.2,41.2-53.4c0-25.5-13.3-52.2-41-52.2
		C287,98.3,273.2,123.7,273.2,151.9z"/>
	<path d="M459.6,215.3l-16.4-28.4c-6.7-10.9-10.9-17.9-14.9-25.3H428c-3.6,7.4-7.2,14.3-13.9,25.5l-15.4,28.2h-19.1l39.3-65
		l-37.7-63.5h19.2l17,30.1c4.8,8.4,8.4,14.9,11.8,21.7h0.6c3.6-7.6,6.9-13.5,11.6-21.7l17.5-30.1h19.1l-39.1,62.5l40,65.9H459.6z"/>
</g>
</svg>
